<?xml version="1.0" encoding="utf-8"?>
<!-- Generator: Adobe Illustrator 22.0.0, SVG Export Plug-In . SVG Version: 6.00 Build 0)  -->
<svg version="1.1" id="Layer_1" xmlns="http://www.w3.org/2000/svg" xmlns:xlink="http://www.w3.org/1999/xlink" x="0px" y="0px"
	 viewBox="0 0 550 550" style="enable-background:new 0 0 550 550;" xml:space="preserve">
<style type="text/css">
	.st0{fill:#211915;}
	.st1{fill:#FFFFFF;}
</style>
<g>
	<circle class="st0" cx="275" cy="275" r="270"/>
	<path class="st1" d="M327.8,275l93.6-93.6c14.6-14.6,14.6-38.2,0-52.8c-14.6-14.6-38.2-14.6-52.8,0L275,222.2l-93.6-93.6
		c-14.6-14.6-38.2-14.6-52.8,0c-14.6,14.6-14.6,38.2,0,52.8l93.6,93.6l-93.6,93.6c-14.6,14.6-14.6,38.2,0,52.8
		c7.3,7.3,16.8,10.9,26.4,10.9s19.1-3.6,26.4-10.9l93.6-93.6l93.6,93.6c7.3,7.3,16.8,10.9,26.4,10.9s19.1-3.6,26.4-10.9
		c14.6-14.6,14.6-38.2,0-52.8L327.8,275z"/>
</g>
<g>
</g>
<g>
</g>
<g>
</g>
<g>
</g>
<g>
</g>
<g>
</g>
<g>
</g>
<g>
</g>
<g>
</g>
<g>
</g>
<g>
</g>
<g>
</g>
<g>
</g>
<g>
</g>
<g>
</g>
</svg>
