<svg xmlns="http://www.w3.org/2000/svg" viewBox="0 0 28.99 48.7"><defs><style>.a{isolation:isolate;}.b{fill:#cacaca;mix-blend-mode:multiply;}.c{fill:#fff;}</style></defs><title>newAsset 5</title><g class="a"><polygon class="b" points="13.51 29.91 6.36 22.74 0 22.74 7.15 29.91 13.51 29.91"/><path class="b" d="M14.14,22.77,14,41.53H6.22l7.15,7.17h7.77l.15-18.76h6.33c.36-2.48.69-4.94,1.05-7.51l-6.88-6.9a2.53,2.53,0,0,1,.13-.22l.06-.09.13-.14.32-.29.19-.12a3,3,0,0,1,.36-.18l.22-.08.44-.11.2,0a5.34,5.34,0,0,1,.71-.07c.55,0,1.1,0,1.65,0h2.73L29,7.49,21.84.32,21.79,7H19.06C18.5,7,18,7,17.4,7c-.24,0-.48,0-.7.06l-.21,0a3.15,3.15,0,0,0-.44.11l-.22.08a3,3,0,0,0-.36.18l-.18.12a1.81,1.81,0,0,0-.33.29.81.81,0,0,1-.1.09l0,0a.61.61,0,0,0-.07.1l-.13.2a.89.89,0,0,0-.08.17.37.37,0,0,0-.05.11l0,.07c-.05.14-.09.29-.13.44v0a1.25,1.25,0,0,0,0,.19c0,.13-.05.26-.06.4a1.34,1.34,0,0,0,0,.2c-.06,1.59-.1,5.11-.1,5.29l6.47,6.5c0,.34-.09.68-.14,1Z"/><path class="c" d="M16.38,0c1.11,0,2.23.06,3.33.11.73,0,1.45.13,2.13.21L21.79,7H19.06C18.5,7,18,7,17.4,7c-1.77.06-3.07.72-3.16,2.94-.06,1.59-.1,5.11-.1,5.29h7.38c-.36,2.57-.69,5-1.05,7.52H14.14L14,41.53H6.22l.14-18.79H0l.06-7.47H6.45v-.56c0-1.51,0-3,0-4.52a19.71,19.71,0,0,1,.24-2.86,8.55,8.55,0,0,1,3.41-5.58A9.74,9.74,0,0,1,15.76,0Z"/></g></svg>