<svg xmlns="http://www.w3.org/2000/svg" viewBox="0 0 43.91 43.92"><defs><style>.a{isolation:isolate;}.b{fill:#cacaca;mix-blend-mode:multiply;}.c{fill:#fff;}</style></defs><title>newAsset 3</title><g class="a"><path class="b" d="M16.71,12.56a7.92,7.92,0,0,0-.82.28l-.42.23a7.57,7.57,0,0,0-.67.42l-.39.32a5.5,5.5,0,0,0-.54.54,2,2,0,0,0-.21.2c-.06.07-.1.15-.15.21s-.18.27-.27.41a2.53,2.53,0,0,0-.18.27,3.78,3.78,0,0,0-.17.35c0,.09-.09.19-.13.29a1.3,1.3,0,0,0-.08.17,5.56,5.56,0,0,0-.25.82h0s0,.06,0,.09a6.37,6.37,0,0,0-.11.78c0,.12,0,.24,0,.37a4.93,4.93,0,0,0,0,.67c0,.14,0,.27.06.41s0,.18.05.26a4.94,4.94,0,0,0,.27.95l0,.07a1.3,1.3,0,0,0,.08.17,6.09,6.09,0,0,0,.42.8l.14.21a1.4,1.4,0,0,0,.1.16,7.44,7.44,0,0,0,.58.68h0l5.05,5.06c-.26,0-.52,0-.79,0a9.31,9.31,0,0,1-6.62-2.74h0l7.15,7.17A9.27,9.27,0,0,0,25.45,35a8.94,8.94,0,0,0,1-.06l.33-.05.67-.11.38-.1a5.76,5.76,0,0,0,.59-.18l.38-.13.55-.23.36-.18.53-.29.33-.2.52-.37.27-.2c.22-.18.43-.36.63-.55l.1-.1q.34-.34.66-.72l0,0,0-.07a9.7,9.7,0,0,0,.85-1.24l0-.05v0a8.52,8.52,0,0,0,.52-1.1l.06-.13,0-.17a9.53,9.53,0,0,0,.29-.95c0-.05,0-.1,0-.15a.06.06,0,0,1,0,0,11.55,11.55,0,0,0,.18-1.2.36.36,0,0,1,0-.11c0-.22,0-.44,0-.66a7.55,7.55,0,0,0,0-1h0a7.39,7.39,0,0,0-.19-1.16,3,3,0,0,0-.08-.32,8.52,8.52,0,0,0-.26-.86,1.27,1.27,0,0,1-.06-.18.59.59,0,0,0,0-.08,8.46,8.46,0,0,0-.47-1,1.74,1.74,0,0,0-.11-.18,7.57,7.57,0,0,0-.49-.76l-.09-.14L33,19.8a8.54,8.54,0,0,0-.79-.92h0l-7.15-7.17a8.79,8.79,0,0,1,.8.92l.18.25c.18.25.34.5.5.77l.1.18a7.58,7.58,0,0,1,.47,1c0,.09.07.18.1.27.1.28.19.56.27.86,0,.1.05.21.08.31a11.22,11.22,0,0,1,.19,1.16c0,.32,0,.64,0,1s0,.49,0,.74l-5.05-5.08a6.06,6.06,0,0,0-4.23-1.77h-.05a6.36,6.36,0,0,0-1.32.15C17,12.46,16.84,12.52,16.71,12.56Zm3.95,9.38c.11-.15.23-.28.35-.42a5.62,5.62,0,0,1,.55-.54,4.16,4.16,0,0,1,.39-.32,5.59,5.59,0,0,1,.66-.41c.14-.08.28-.16.43-.23a6,6,0,0,1,.81-.29c.14,0,.27-.09.41-.12a5.66,5.66,0,0,1,1.31-.16h.06a6,6,0,0,1,2,.4c0,.17,0,.34-.08.51s0,.13,0,.2c-.08.32-.18.64-.29,1,0,.1-.07.19-.11.29a8.65,8.65,0,0,1-.52,1.11l0,.07a9.81,9.81,0,0,1-.85,1.25,1,1,0,0,0-.08.11,8.93,8.93,0,0,1-.66.72l-.09.09c-.21.19-.42.38-.64.55l-.26.2-.53.38-.33.2-.52.29-.37.17-.55.23-.38.14a5.72,5.72,0,0,1-.59.17l-.38.1a4.51,4.51,0,0,1-.53.09,6.09,6.09,0,0,1-.25-.83c0-.09,0-.18,0-.26a5.66,5.66,0,0,1-.09-1.09,5.48,5.48,0,0,1,.13-1.15.25.25,0,0,0,0-.08,7,7,0,0,1,.33-1c0-.1.09-.19.14-.29s.22-.42.34-.62S20.56,22.07,20.66,21.94Z"/><path class="b" d="M10.09,40.81a10,10,0,0,0,4.73,2.57c1.47.38,5.84.54,10.21.54a89.47,89.47,0,0,0,10.14-.41,11.24,11.24,0,0,0,1.71-.4l.49-.18c.36-.14.71-.28,1.05-.45l.49-.27c.32-.19.61-.39.9-.6l.4-.32a8.52,8.52,0,0,0,.95-.95l.13-.14,0,0a9.43,9.43,0,0,0,.86-1.27l0-.06c.08-.14.13-.29.2-.43a9.58,9.58,0,0,0,.42-.92.45.45,0,0,0,.06-.12c.15-.39.28-.79.4-1.22,0-.07,0-.16.06-.25s0-.27.07-.41a.64.64,0,0,1,0-.07c0-.25.07-.53.11-.83,0-.07,0-.15,0-.23,0-.28.06-.58.09-.89v-.14c0-.35,0-.73.07-1.13,0-.12,0-.25,0-.38,0-.29,0-.58,0-.89s0-.32,0-.48l0-.9c0-.16,0-.32,0-.48l0-1.12v-.28c0-.48,0-1,0-1.43V23.36c0-.15,0-.31,0-.46,0-.36,0-.71,0-1v-.28q0-.66,0-1.26a1.93,1.93,0,0,0,0-.24c0-.31,0-.62,0-.91,0-.11,0-.22,0-.33s0-.47,0-.69,0-.21,0-.3,0-.43,0-.62,0-.13,0-.19c0-.22,0-.43,0-.59v0a13.18,13.18,0,0,0-.27-1.59c0-.17-.1-.33-.15-.49s-.14-.53-.24-.78c0-.09-.08-.17-.12-.26s-.12-.28-.19-.41a9.58,9.58,0,0,0-.55-1c-.08-.12-.15-.25-.23-.36a1.88,1.88,0,0,0-.12-.18,8.92,8.92,0,0,0-.9-1.05L33.77,3.12a8.92,8.92,0,0,1,1,1.22c.08.12.16.24.23.36a8,8,0,0,1,.55,1c.07.14.14.28.19.41a8,8,0,0,1,.36,1c.05.17.11.33.15.49a11.87,11.87,0,0,1,.27,1.6c0,.17,0,.38.05.62,0,.07,0,.15,0,.22s0,.37,0,.58v0l-5.2-5.21a6.49,6.49,0,0,0-3.7-1.78,84.42,84.42,0,0,0-9.19-.35c-3.66,0-7.31.1-8.91.27a8.26,8.26,0,0,0-1.26.25L8,4a7.71,7.71,0,0,0-.77.3l-.38.21a5.16,5.16,0,0,0-.63.4c-.11.09-.23.17-.33.27a4.51,4.51,0,0,0-.54.53c-.06.07-.14.12-.2.2a.61.61,0,0,0-.07.1,3.23,3.23,0,0,0-.29.43c-.07.11-.16.21-.23.33a.75.75,0,0,1-.06.13c-.06.12-.11.24-.17.37s-.12.24-.17.37a1.66,1.66,0,0,0-.06.21c0,.15-.1.3-.14.45s-.07.22-.1.34-.07.34-.1.52-.06.44-.09.71l0,.3c0,.17,0,.33,0,.52a.19.19,0,0,0,0,.08c0,.09,0,.19,0,.28s0,.47,0,.72,0,.25,0,.38,0,.48,0,.74,0,.28,0,.43,0,.55,0,.83c0,.13,0,.26,0,.39l0,1.27V16c0,.36,0,.72,0,1.09v.48c0,.29,0,.58,0,.86v1.86c0,.38,0,.75,0,1.12v.18c0,.42,0,.84,0,1.24,0,.11,0,.21,0,.32,0,.29,0,.58,0,.85s0,.25,0,.38,0,.47,0,.69,0,.24,0,.35,0,.45,0,.66,0,.16,0,.23c0,.27,0,.51.05.72v0c0,.24,0,.45.07.61A7.46,7.46,0,0,0,4,29.1c0,.06,0,.13,0,.18s0,.08.07.13a5.76,5.76,0,0,0,.67,1.22s0,0,0,.06a4.94,4.94,0,0,0,.52.61l5.24,5.26a19.06,19.06,0,0,1-2.91-.35,13.32,13.32,0,0,1-1.39-.45A9.46,9.46,0,0,1,3,33.64H3ZM36.66,11.37c0,.09,0,.17,0,.26s0,.25,0,.37q0,.4,0,.84v.31c0,.26,0,.54,0,.82l-3.24-3.26c.55,0,1,.09,1.38.14A7.61,7.61,0,0,1,36.66,11.37Zm-7.42-.83-.11.07-.1,0a2.37,2.37,0,0,1-.8.15,2.09,2.09,0,0,1-1-.29C27.9,10.51,28.58,10.52,29.24,10.54Zm-3.56,0H27l6.8,6.82a2.22,2.22,0,0,0,1.54.65,2.27,2.27,0,0,0,.79-.16l.11,0a2.08,2.08,0,0,0,.48-.28v.14c0,.33,0,.66,0,1v.45c0,.47,0,.94,0,1.41v.28c0,.38,0,.76,0,1.13,0,.16,0,.31,0,.46l0,.92c0,.16,0,.31,0,.47s0,.61,0,.91c0,.12,0,.25,0,.37,0,.4,0,.79-.07,1.16a.34.34,0,0,0,0,.1q0,.48-.09.9a1.79,1.79,0,0,1,0,.23c0,.3-.07.58-.11.82,0,0,0,.05,0,.07-.05.25-.09.48-.14.67a13.16,13.16,0,0,1-.45,1.34c-.13.32-.28.61-.42.91s-.16.34-.25.49A8.08,8.08,0,0,1,34.16,33a1.14,1.14,0,0,1-.15.16,7.76,7.76,0,0,1-.94,1c-.13.11-.27.21-.41.31a7.7,7.7,0,0,1-.89.6c-.17.1-.33.19-.5.27a9,9,0,0,1-1.05.45c-.16.06-.32.13-.49.18a12.22,12.22,0,0,1-1.71.41,89.47,89.47,0,0,1-10.14.41c-2.36,0-4.7,0-6.61-.15v0c0-.1-.08-.2-.11-.3a7.77,7.77,0,0,1-.37-1.42c0-.16,0-.37-.07-.61s0-.46-.06-.73c0-.08,0-.16,0-.24s0-.42,0-.65,0-.24,0-.36,0-.45,0-.68,0-.26,0-.4,0-.52,0-.79V30c0-.39,0-.8,0-1.21v-.27c0-.35,0-.69,0-1V25.66c0-.31,0-.62,0-.92v-.43c0-.38,0-.75,0-1.12V23q0-.66,0-1.29c0-.11,0-.22,0-.33q0-.47,0-.9c0-.13,0-.26,0-.39s0-.52,0-.76,0-.26,0-.38,0-.5.05-.73,0-.18,0-.26,0-.42,0-.62,0-.2,0-.28a6.41,6.41,0,0,1,.09-.72,6,6,0,0,1,.2-.86c0-.15.08-.3.13-.45a5.89,5.89,0,0,1,.24-.58c.06-.12.11-.25.17-.37s.19-.31.29-.46.18-.29.29-.43.18-.2.27-.3a4.42,4.42,0,0,1,.53-.53l.34-.27c.2-.14.41-.27.62-.4l.39-.2a6.36,6.36,0,0,1,.76-.31c.13,0,.25-.09.38-.12a8.26,8.26,0,0,1,1.26-.25C18.38,10.6,22,10.5,25.68,10.5Z"/><path class="c" d="M28.25,6.39h0a2.19,2.19,0,0,1,2.18,2.22,2.22,2.22,0,0,1-2.23,2.19,2.21,2.21,0,0,1,0-4.41Z"/><path class="c" d="M36.54,9.23c.27,2.89.45,16.56-.4,19.76A9.41,9.41,0,0,1,28,36.34a89.47,89.47,0,0,1-10.14.41c-4.37,0-8.74-.16-10.21-.54a9.23,9.23,0,0,1-7.32-8c-.49-3.1-.54-17.5.35-20.63a9.38,9.38,0,0,1,8-7.15A72.9,72.9,0,0,1,17.92,0c3.43,0,6.89.09,9,.21A10.13,10.13,0,0,1,33.61,3,9.69,9.69,0,0,1,36.54,9.23ZM33,27.59c.52-3.24.52-15,.22-18a6.17,6.17,0,0,0-5.5-5.86,84.42,84.42,0,0,0-9.19-.35c-3.66,0-7.31.1-8.91.27A6.3,6.3,0,0,0,3.76,9.14a125.51,125.51,0,0,0-.13,18.55,6,6,0,0,0,4.54,5.2c1.42.4,5.7.54,9.88.54,3.86,0,7.64-.12,9.07-.28A6.29,6.29,0,0,0,33,27.59"/><path class="c" d="M18.46,9a9.34,9.34,0,0,1,9.35,9.43,9.52,9.52,0,0,1-9.51,9.42A9.33,9.33,0,0,1,9,18.38,9.49,9.49,0,0,1,18.46,9Zm-.14,15.51a6.15,6.15,0,0,0,6.15-6,6,6,0,0,0-6-6.16h-.05a6.16,6.16,0,0,0-6.15,6,6,6,0,0,0,6,6.15h.05"/></g></svg>