<svg xmlns="http://www.w3.org/2000/svg" viewBox="0 0 45.71 38.42"><defs><style>.a{isolation:isolate;}.b{fill:#cacaca;mix-blend-mode:multiply;}.c{fill:#fff;}</style></defs><title>newAsset 4</title><g class="a"><path class="b" d="M11.49,10.28c-.51-.51-1-1.06-1.5-1.64L2.84,1.47c.49.57,1,1.12,1.51,1.64Z"/><path class="b" d="M4,11l7.15,7.17a8.63,8.63,0,0,0,1.12.95L5.15,12A9.36,9.36,0,0,1,4,11Z"/><path class="b" d="M4,16.72l7.14,7.17A8,8,0,0,0,15,26L7.88,18.82A7.84,7.84,0,0,1,4,16.72Z"/><path class="b" d="M44.07,9.16a3.13,3.13,0,0,0,.15-.32c.09-.2.2-.39.28-.59l.15-.45L37.51.62a8.92,8.92,0,0,1-.44,1c0,.1-.09.22-.15.32a6.41,6.41,0,0,1-.45.7c-.1.14-.18.29-.29.42a7.45,7.45,0,0,1-.61.65c-.11.11-.2.22-.31.32a9.5,9.5,0,0,1-1.11.84l1.79,1.8c-.37.33-.75.66-1.16,1l-.13.25c0,.7,0,1.4,0,2.1,0,.47-.07.93-.13,1.4-.08.67-.21,1.33-.35,2-.09.41-.2.81-.31,1.21,0,.15-.07.31-.12.46-.17.55-.35,1.1-.56,1.64s-.47,1.17-.73,1.73-.52,1-.81,1.52-.41.68-.62,1-.27.44-.41.65c-.26.37-.53.73-.8,1.08-.13.17-.24.34-.37.49-.41.51-.85,1-1.31,1.47a21.16,21.16,0,0,1-10.31,5.9l-6.1-6.12a8,8,0,0,1-5.4-2.32l7.15,7.17a7.72,7.72,0,0,0,2.41,1.64,25.82,25.82,0,0,1-3.05.3h-.71A22.08,22.08,0,0,1,.19,27.84L0,27.72,7.15,34.9l.19.12a22.16,22.16,0,0,0,11.88,3.4h.71a23.93,23.93,0,0,0,4.4-.52,21.25,21.25,0,0,0,10.9-6.05c.46-.47.89-1,1.3-1.46l0,0c.12-.15.22-.3.33-.45.28-.36.55-.71.8-1.08.15-.21.28-.44.42-.65s.42-.67.62-1l.09-.14c.25-.45.49-.91.71-1.37s.52-1.15.74-1.73c0,0,0,0,0,0,.2-.53.39-1.06.55-1.61L41,21.8c.1-.36.2-.71.28-1.07l0-.14c.14-.66.26-1.32.35-2q.08-.57.12-1.14a2.08,2.08,0,0,0,0-.25c0-.7.07-1.4,0-2.11l.14-.25a15.4,15.4,0,0,0,1.52-1.26c.16-.15.29-.32.44-.47.3-.31.61-.62.89-1l0,0L45,12c.27-.34.51-.68.76-1.05L44,9.24Z"/><path class="c" d="M38.56,3.74A10.85,10.85,0,0,1,37.66,5a14.92,14.92,0,0,1-2.88,2.73l-.13.25a21.61,21.61,0,0,1-.18,3.5,23.35,23.35,0,0,1-6.39,13.24,21.26,21.26,0,0,1-10.89,6,24.94,24.94,0,0,1-4.41.52h-.71A22.08,22.08,0,0,1,.19,27.84L0,27.72a16.64,16.64,0,0,0,1.85.1A16.12,16.12,0,0,0,7.9,26.65a15.56,15.56,0,0,0,3.77-2.2A7.83,7.83,0,0,1,4.38,19a7.29,7.29,0,0,0,1.46.14,8.4,8.4,0,0,0,1.92-.23l.12-.06a7.71,7.71,0,0,1-5.1-3.61A7.65,7.65,0,0,1,1.65,11a7.73,7.73,0,0,0,3.5.94A7.9,7.9,0,0,1,2.84,1.47,22.39,22.39,0,0,0,19.05,9.72c-.05-.33-.09-.59-.13-.87a7.7,7.7,0,0,1,1.2-5.16A7.64,7.64,0,0,1,25.49.12,8.93,8.93,0,0,1,26.93,0a7.63,7.63,0,0,1,5.46,2.32.4.4,0,0,0,.28.14l.13,0A15.59,15.59,0,0,0,37.4.68l.11-.06a7.84,7.84,0,0,1-3.36,4.3A15.32,15.32,0,0,0,38.56,3.74Z"/></g></svg>