<svg xmlns="http://www.w3.org/2000/svg" viewBox="0 0 45.13 33.78"><defs><style>.a{isolation:isolate;}.b{fill:#cacaca;mix-blend-mode:multiply;}.c{fill:#fff;}</style></defs><title>Asset 2</title><g class="a"><path class="b" d="M33.26,20.09l-7.15-7.18L14.37,6.76c0,4.1-.06,8.16-.1,12.28l7.15,7.17c0-4.12.06-8.17.1-12.28h0Z"/><path class="b" d="M45.09,22.19c0-.76,0-1.53,0-2.3v-.4c0-.75,0-1.49-.06-2.21,0-.14,0-.28,0-.42,0-.73-.07-1.44-.13-2.1v0c0-.26,0-.5-.08-.74s0-.34,0-.49-.08-.52-.12-.77,0-.25,0-.36-.1-.47-.15-.69a2.8,2.8,0,0,0-.06-.28,7.25,7.25,0,0,0-.23-.77l0-.06a.6.6,0,0,1-.06-.11,4.53,4.53,0,0,0-.48-.87,1.34,1.34,0,0,0-.06-.12A3.73,3.73,0,0,0,43.14,9L36,1.82a4.44,4.44,0,0,1,.46.59,4.39,4.39,0,0,1,.48.88c0,.06.06.1.08.16a6.69,6.69,0,0,1,.24.78c0,.1.05.23.07.34s.09.4.13.62l.06.41c0,.24.08.47.11.72l.06.49c0,.26.05.5.08.77.06.67.1,1.38.14,2.11,0,.14,0,.28,0,.42,0,.71,0,1.45,0,2.2v.41c0,.76,0,1.53,0,2.28a.22.22,0,0,0,0,.08c0,.77-.07,1.51-.12,2.24,0,.18,0,.37,0,.54s0,.33,0,.49l-.09.83c0,.15,0,.31,0,.46s-.07.53-.11.79l-.06.38c-.06.34-.12.67-.19,1,0,0,0,0,0,.06-.07.31-.15.59-.23.85l-.06.21a5.71,5.71,0,0,1-.25.64,5.26,5.26,0,0,1-.27.47,3,3,0,0,1-.2.29c-.06.08-.13.15-.19.22a4.89,4.89,0,0,1-.46.45l-.2.17a5.7,5.7,0,0,1-.75.49c-1.28.66-8.71,1-16,1-6.7,0-13.27-.27-14.81-.77A4.53,4.53,0,0,1,2,24.74l7.15,7.17A4.58,4.58,0,0,0,11,33c1.54.5,8.12.76,14.82.76,7.28,0,14.71-.31,16-1a5.37,5.37,0,0,0,.75-.49l.2-.16c.16-.14.31-.29.46-.45a.68.68,0,0,1,.12-.12l.07-.11c.07-.09.13-.19.2-.29s.09-.13.14-.21.09-.16.13-.25.11-.25.16-.39a2,2,0,0,0,.08-.26,1.29,1.29,0,0,0,.07-.21,7.85,7.85,0,0,0,.22-.84h0a.17.17,0,0,1,0-.07c.06-.3.13-.63.19-1,0-.12,0-.25.05-.38s.08-.52.12-.79,0-.31,0-.46.06-.54.08-.82,0-.33,0-.49a2.83,2.83,0,0,0,0-.29c0-.08,0-.17,0-.25q.08-1.09.12-2.25Z"/><path class="c" d="M37,3.45c1.36,3.59,1.31,16.65-.33,20.1a4.56,4.56,0,0,1-2.07,2.09c-1.28.66-8.71,1-16,1-6.7,0-13.27-.27-14.81-.77A4.37,4.37,0,0,1,.92,23C-.31,19.54-.59,5,1.87,2.15A4.77,4.77,0,0,1,5.06.47C8,.15,13.61,0,19.17,0c6.92,0,13.72.24,15,.71A4.45,4.45,0,0,1,37,3.45ZM14.27,19l11.84-6.13L14.37,6.76c0,4.1-.06,8.16-.1,12.28"/></g></svg>